<svg width="1884" height="1881" xmlns="http://www.w3.org/2000/svg" xmlns:xlink="http://www.w3.org/1999/xlink" xml:space="preserve" overflow="hidden"><defs><clipPath id="clip0"><rect x="1228" y="377" width="1884" height="1881"/></clipPath></defs><g clip-path="url(#clip0)" transform="translate(-1228 -377)"><rect x="1228" y="1827" width="430" height="431" fill="#FEFF7F"/><rect x="1712" y="1827" width="430" height="431" fill="#464646"/><rect x="2197" y="1827" width="430" height="431" fill="#464646"/><rect x="2682" y="1827" width="430" height="431" fill="#464646"/><rect x="1228" y="1344" width="430" height="430" fill="#7FBCFF"/><rect x="1712" y="1344" width="430" height="430" fill="#7FBCFF"/><rect x="2197" y="1344" width="430" height="430" fill="#464646"/><rect x="2682" y="1344" width="430" height="430" fill="#464646"/><rect x="1228" y="860" width="430" height="430" fill="#BEFF7F"/><rect x="1712" y="860" width="430" height="430" fill="#BEFF7F"/><rect x="2197" y="860" width="430" height="430" fill="#BEFF7F"/><rect x="2682" y="860" width="430" height="430" fill="#464646"/><rect x="1228" y="377" width="430" height="430" fill="#FF797E"/><rect x="1712" y="377" width="430" height="430" fill="#FF797E"/><rect x="2197" y="377" width="430" height="430" fill="#464646"/><rect x="2682" y="377" width="430" height="430" fill="#464646"/></g></svg>