<svg width="2247" height="2247" xmlns="http://www.w3.org/2000/svg" xmlns:xlink="http://www.w3.org/1999/xlink" xml:space="preserve" overflow="hidden"><defs><clipPath id="clip0"><rect x="1047" y="196" width="2247" height="2247"/></clipPath></defs><g clip-path="url(#clip0)" transform="translate(-1047 -196)"><path d="M2422.37 854.76C2374.17 858.159 2328.47 884.661 2302.49 929.659 2260.91 1001.65 2285.56 1093.7 2357.56 1135.27L2660.38 1310.12 2357.48 1485.03C2285.48 1526.61 2260.83 1618.65 2302.41 1690.65 2330.25 1738.85 2380.88 1765.92 2432.91 1765.92 2458.41 1765.92 2484.31 1759.45 2508.02 1745.72L3035.17 1441.35 3035.61 1441.17 3036.04 1440.84 3036.64 1440.49 3036.55 1440.46 3066.97 1417.56C3076.44 1408.24 3084.83 1397.5 3091.79 1385.42 3133.36 1313.43 3108.72 1221.39 3036.72 1179.81L2508.1 874.589C2481.1 858.999 2451.28 852.721 2422.37 854.76ZM1917.63 854.682C1888.72 852.643 1858.9 858.92 1831.9 874.511L1303.28 1179.73 1304.11 1180.03 1287.75 1190.06C1272.15 1201.84 1258.6 1216.88 1248.21 1234.88 1206.64 1306.88 1231.28 1398.92 1303.28 1440.49L1831.9 1745.72C1855.61 1759.37 1881.51 1765.92 1907.02 1765.92 1959.04 1765.92 2009.67 1738.93 2037.51 1690.65 2079.09 1618.65 2054.44 1526.61 1982.44 1485.03L1679.53 1310.13 1982.44 1135.19C2054.44 1093.62 2079.09 1001.58 2037.51 929.581 2011.53 884.583 1965.83 858.081 1917.63 854.682ZM1049 198 3291 198 3291 2440 1049 2440Z" fill="#000000" fill-rule="evenodd" fill-opacity="0.419608"/><rect x="1049.5" y="198.5" width="2242" height="2242" stroke="#000000" stroke-width="4.58333" stroke-miterlimit="8"/><rect x="1228" y="1827" width="430" height="431" fill="#FEFF7F"/><rect x="1712" y="1827" width="430" height="431" fill="#464646"/><rect x="2197" y="1827" width="430" height="431" fill="#464646"/><rect x="2682" y="1827" width="430" height="431" fill="#464646"/><rect x="1228" y="1344" width="430" height="430" fill="#7FBCFF"/><rect x="1712" y="1344" width="430" height="430" fill="#7FBCFF"/><rect x="2197" y="1344" width="430" height="430" fill="#464646"/><rect x="2682" y="1344" width="430" height="430" fill="#464646"/><rect x="1228" y="860" width="430" height="430" fill="#BEFF7F"/><rect x="1712" y="860" width="430" height="430" fill="#BEFF7F"/><rect x="2197" y="860" width="430" height="430" fill="#BEFF7F"/><rect x="2682" y="860" width="430" height="430" fill="#464646"/><rect x="1228" y="377" width="430" height="430" fill="#FF797E"/><rect x="1712" y="377" width="430" height="430" fill="#FF797E"/><rect x="2197" y="377" width="430" height="430" fill="#464646"/><rect x="2682" y="377" width="430" height="430" fill="#464646"/></g></svg>