<svg width="2869" height="2315" xmlns="http://www.w3.org/2000/svg" xmlns:xlink="http://www.w3.org/1999/xlink" xml:space="preserve" overflow="hidden"><defs><clipPath id="clip0"><rect x="667" y="81" width="2869" height="2315"/></clipPath></defs><g clip-path="url(#clip0)" transform="translate(-667 -81)"><rect x="667" y="81.0001" width="2869" height="2310" fill="#1C1C1C"/><path d="M2107.79 760.387C2058.18 763.887 2011.14 791.181 1984.39 837.524 1941.59 911.67 1966.96 1006.46 2041.08 1049.28L2352.82 1229.36 2041 1409.5C1966.88 1452.31 1941.51 1547.11 1984.31 1621.25 2012.97 1670.9 2065.09 1698.77 2118.65 1698.77 2144.9 1698.77 2171.56 1692.11 2195.97 1677.97L2738.64 1364.5 2739.09 1364.32 2739.54 1363.98 2740.15 1363.62 2740.06 1363.59 2771.37 1340C2781.13 1330.4 2789.76 1319.34 2796.93 1306.91 2839.72 1232.76 2814.35 1137.97 2740.23 1095.15L2196.05 780.809C2168.26 764.752 2137.56 758.286 2107.79 760.387ZM1588.2 760.306C1558.44 758.206 1527.74 764.671 1499.95 780.728L955.765 1095.07 956.624 1095.38 939.781 1105.7C923.722 1117.84 909.775 1133.33 899.075 1151.87 856.276 1226.01 881.649 1320.81 955.766 1363.62L1499.95 1677.97C1524.36 1692.03 1551.02 1698.77 1577.28 1698.77 1630.83 1698.77 1682.95 1670.98 1711.61 1621.25 1754.41 1547.11 1729.04 1452.31 1654.92 1409.5L1343.09 1229.37 1654.92 1049.2C1729.04 1006.38 1754.41 911.59 1711.61 837.443 1684.86 791.101 1637.82 763.806 1588.2 760.306ZM694 83.9999 3002 83.9999 3002 2393 694 2393Z" fill="#000000" fill-rule="evenodd" fill-opacity="0.419608"/><rect x="694.5" y="84.5001" width="2828" height="2309" stroke="#000000" stroke-width="4.58333" stroke-miterlimit="8"/><rect x="878" y="1762" width="443" height="443" fill="#FEFF7F"/><rect x="1377" y="1762" width="443" height="443" fill="#464646"/><rect x="1876" y="1762" width="443" height="443" fill="#464646"/><rect x="2375" y="1762" width="443" height="443" fill="#464646"/><rect x="878" y="1264" width="443" height="443" fill="#7FBCFF"/><rect x="1377" y="1264" width="443" height="443" fill="#7FBCFF"/><rect x="1876" y="1264" width="443" height="443" fill="#464646"/><rect x="2375" y="1264" width="443" height="443" fill="#464646"/><rect x="878" y="766" width="443" height="443" fill="#BEFF7F"/><rect x="1377" y="766" width="443" height="443" fill="#BEFF7F"/><rect x="1876" y="766" width="443" height="443" fill="#BEFF7F"/><rect x="2375" y="766" width="443" height="443" fill="#464646"/><rect x="878" y="268" width="443" height="443" fill="#FF797E"/><rect x="1377" y="268" width="443" height="443" fill="#FF797E"/><rect x="1876" y="268" width="443" height="443" fill="#464646"/><rect x="2375" y="268" width="443" height="443" fill="#464646"/><rect x="2872" y="1762" width="443" height="443" fill="#464646"/><rect x="2872" y="1264" width="443" height="443" fill="#464646"/><rect x="2872" y="766" width="443" height="443" fill="#464646"/><rect x="2872" y="268" width="443" height="443" fill="#464646"/><rect x="3378" y="1762" width="144" height="443" fill="#464646"/><rect x="3378" y="1264" width="144" height="443" fill="#464646"/><rect x="3378" y="766" width="144" height="443" fill="#464646"/><rect x="3378" y="268" width="144" height="443" fill="#464646"/></g></svg>